<mxfile host="Electron" modified="2023-11-21T16:27:13.652Z" agent="Mozilla/5.0 (X11; Linux x86_64) AppleWebKit/537.36 (KHTML, like Gecko) draw.io/22.0.3 Chrome/114.0.5735.289 Electron/25.8.4 Safari/537.36" etag="F9o9Zi_k7sJ5NlqSRmuy" version="22.0.3" type="device">
  <diagram name="Page-1" id="mDLpG8O_P2Ap3NyirGyM">
    <mxGraphModel dx="880" dy="522" grid="1" gridSize="10" guides="1" tooltips="1" connect="1" arrows="1" fold="1" page="1" pageScale="1" pageWidth="827" pageHeight="1169" math="0" shadow="0">
      <root>
        <mxCell id="0" />
        <mxCell id="1" parent="0" />
        <mxCell id="KZM1wFoNPO-G8aQWtG5Q-1" value="" style="rounded=0;whiteSpace=wrap;html=1;fillColor=#fad7ac;strokeColor=#b46504;" parent="1" vertex="1">
          <mxGeometry x="299" y="40" width="240" height="240" as="geometry" />
        </mxCell>
        <mxCell id="KZM1wFoNPO-G8aQWtG5Q-2" value="Application" style="text;html=1;strokeColor=none;fillColor=none;align=center;verticalAlign=middle;whiteSpace=wrap;rounded=0;" parent="1" vertex="1">
          <mxGeometry x="299" y="40" width="80" height="30" as="geometry" />
        </mxCell>
        <mxCell id="KZM1wFoNPO-G8aQWtG5Q-3" value="" style="rounded=0;whiteSpace=wrap;html=1;fillColor=#f8cecc;strokeColor=#b85450;" parent="1" vertex="1">
          <mxGeometry x="40" y="40" width="240" height="240" as="geometry" />
        </mxCell>
        <mxCell id="KZM1wFoNPO-G8aQWtG5Q-4" value="Domain" style="text;html=1;strokeColor=none;fillColor=none;align=center;verticalAlign=middle;whiteSpace=wrap;rounded=0;" parent="1" vertex="1">
          <mxGeometry x="40" y="40" width="60" height="30" as="geometry" />
        </mxCell>
        <mxCell id="KZM1wFoNPO-G8aQWtG5Q-5" value="Models" style="rounded=1;whiteSpace=wrap;html=1;fillColor=#dae8fc;strokeColor=#6c8ebf;" parent="1" vertex="1">
          <mxGeometry x="119" y="130" width="120" height="60" as="geometry" />
        </mxCell>
        <mxCell id="KZM1wFoNPO-G8aQWtG5Q-6" value="DTO" style="rounded=1;whiteSpace=wrap;html=1;fillColor=#b0e3e6;strokeColor=#0e8088;" parent="1" vertex="1">
          <mxGeometry x="379" y="200" width="120" height="60" as="geometry" />
        </mxCell>
        <mxCell id="KZM1wFoNPO-G8aQWtG5Q-8" value="IDataRepository" style="rounded=1;whiteSpace=wrap;html=1;fillColor=#fff2cc;strokeColor=#d6b656;" parent="1" vertex="1">
          <mxGeometry x="379" y="60" width="120" height="60" as="geometry" />
        </mxCell>
        <mxCell id="KZM1wFoNPO-G8aQWtG5Q-10" value="" style="rounded=0;whiteSpace=wrap;html=1;fillColor=#ffe6cc;strokeColor=#d79b00;" parent="1" vertex="1">
          <mxGeometry x="29" y="300" width="530" height="110" as="geometry" />
        </mxCell>
        <mxCell id="KZM1wFoNPO-G8aQWtG5Q-11" value="Infrastructure" style="text;html=1;strokeColor=none;fillColor=none;align=center;verticalAlign=middle;whiteSpace=wrap;rounded=0;" parent="1" vertex="1">
          <mxGeometry x="29" y="300" width="90" height="30" as="geometry" />
        </mxCell>
        <mxCell id="KZM1wFoNPO-G8aQWtG5Q-12" value="DataRepository" style="rounded=1;whiteSpace=wrap;html=1;fillColor=#fff2cc;strokeColor=#d6b656;" parent="1" vertex="1">
          <mxGeometry x="299" y="330" width="120" height="60" as="geometry" />
        </mxCell>
        <mxCell id="KZM1wFoNPO-G8aQWtG5Q-13" value="DataService" style="rounded=1;whiteSpace=wrap;html=1;fillColor=#e1d5e7;strokeColor=#9673a6;" parent="1" vertex="1">
          <mxGeometry x="429" y="330" width="120" height="60" as="geometry" />
        </mxCell>
        <mxCell id="KZM1wFoNPO-G8aQWtG5Q-14" value="DbContext" style="rounded=1;whiteSpace=wrap;html=1;fillColor=#dae8fc;strokeColor=#6c8ebf;" parent="1" vertex="1">
          <mxGeometry x="39" y="330" width="120" height="60" as="geometry" />
        </mxCell>
        <mxCell id="KZM1wFoNPO-G8aQWtG5Q-15" value="" style="rounded=0;whiteSpace=wrap;html=1;fillColor=#fff2cc;strokeColor=#d6b656;" parent="1" vertex="1">
          <mxGeometry x="569" y="300" width="240" height="110" as="geometry" />
        </mxCell>
        <mxCell id="KZM1wFoNPO-G8aQWtG5Q-16" value="API" style="text;html=1;strokeColor=none;fillColor=none;align=center;verticalAlign=middle;whiteSpace=wrap;rounded=0;" parent="1" vertex="1">
          <mxGeometry x="559" y="300" width="50" height="30" as="geometry" />
        </mxCell>
        <mxCell id="KZM1wFoNPO-G8aQWtG5Q-17" value="Controllers" style="rounded=1;whiteSpace=wrap;html=1;fillColor=#ffe6cc;strokeColor=#d79b00;" parent="1" vertex="1">
          <mxGeometry x="640" y="330" width="120" height="60" as="geometry" />
        </mxCell>
        <mxCell id="KZM1wFoNPO-G8aQWtG5Q-18" value="Migrations" style="rounded=1;whiteSpace=wrap;html=1;fillColor=#b0e3e6;strokeColor=#0e8088;" parent="1" vertex="1">
          <mxGeometry x="169" y="330" width="120" height="60" as="geometry" />
        </mxCell>
        <mxCell id="KZM1wFoNPO-G8aQWtG5Q-19" value="Configurations" style="rounded=1;whiteSpace=wrap;html=1;fillColor=#e1d5e7;strokeColor=#9673a6;" parent="1" vertex="1">
          <mxGeometry x="120" y="200" width="120" height="60" as="geometry" />
        </mxCell>
        <mxCell id="KZM1wFoNPO-G8aQWtG5Q-20" value="Map" style="rounded=1;whiteSpace=wrap;html=1;fillColor=#b0e3e6;strokeColor=#0e8088;" parent="1" vertex="1">
          <mxGeometry x="379" y="130" width="120" height="60" as="geometry" />
        </mxCell>
        <mxCell id="x9Kh6SM6a5i-0-z9-6MS-1" value="" style="rounded=0;whiteSpace=wrap;html=1;fillColor=#fad7ac;strokeColor=#b46504;" parent="1" vertex="1">
          <mxGeometry x="560" y="40" width="240" height="240" as="geometry" />
        </mxCell>
        <mxCell id="x9Kh6SM6a5i-0-z9-6MS-2" value="Service" style="text;html=1;strokeColor=none;fillColor=none;align=center;verticalAlign=middle;whiteSpace=wrap;rounded=0;" parent="1" vertex="1">
          <mxGeometry x="560" y="40" width="60" height="30" as="geometry" />
        </mxCell>
        <mxCell id="KZM1wFoNPO-G8aQWtG5Q-7" value="IDataService" style="rounded=1;whiteSpace=wrap;html=1;fillColor=#e1d5e7;strokeColor=#9673a6;" parent="1" vertex="1">
          <mxGeometry x="640" y="170" width="120" height="60" as="geometry" />
        </mxCell>
        <mxCell id="KZM1wFoNPO-G8aQWtG5Q-9" value="Seed" style="rounded=1;whiteSpace=wrap;html=1;fillColor=#dae8fc;strokeColor=#6c8ebf;" parent="1" vertex="1">
          <mxGeometry x="640" y="90" width="120" height="60" as="geometry" />
        </mxCell>
        <mxCell id="gxkX5JJhYb1N4qKK1YJd-1" value="Enums" style="rounded=1;whiteSpace=wrap;html=1;fillColor=#fad9d5;strokeColor=#ae4132;" vertex="1" parent="1">
          <mxGeometry x="120" y="60" width="120" height="60" as="geometry" />
        </mxCell>
      </root>
    </mxGraphModel>
  </diagram>
</mxfile>
